<mxfile host="app.diagrams.net" agent="Mozilla/5.0 (Windows NT 10.0; Win64; x64) AppleWebKit/537.36 (KHTML, like Gecko) Chrome/136.0.0.0 Safari/537.36" version="26.2.2">
  <diagram name="Page-1" id="QqgxBXkw2qswxVLfqaX6">
    <mxGraphModel dx="1044" dy="535" grid="1" gridSize="10" guides="1" tooltips="1" connect="1" arrows="1" fold="1" page="1" pageScale="1" pageWidth="850" pageHeight="1100" math="0" shadow="0">
      <root>
        <mxCell id="0" />
        <mxCell id="1" parent="0" />
        <mxCell id="TRynRU9m-mXqjnWPsGmU-1" value="Visiteur" style="shape=umlActor;verticalLabelPosition=bottom;verticalAlign=top;html=1;fontSize=13;fontStyle=1" parent="1" vertex="1">
          <mxGeometry x="30" y="180" width="30" height="60" as="geometry" />
        </mxCell>
        <mxCell id="TRynRU9m-mXqjnWPsGmU-3" value="Prendre un rendez-vous" style="ellipse;whiteSpace=wrap;html=1;fontStyle=1;fontSize=13;" parent="1" vertex="1">
          <mxGeometry x="280" y="90" width="140" height="70" as="geometry" />
        </mxCell>
        <mxCell id="TRynRU9m-mXqjnWPsGmU-4" value="Consulter la disponibilité des Médecins" style="ellipse;whiteSpace=wrap;html=1;fontStyle=1;fontSize=13;" parent="1" vertex="1">
          <mxGeometry x="265" y="175" width="170" height="70" as="geometry" />
        </mxCell>
        <mxCell id="TRynRU9m-mXqjnWPsGmU-5" value="Consulter la disponibilité des Radiologue" style="ellipse;whiteSpace=wrap;html=1;fontStyle=1;fontSize=13;" parent="1" vertex="1">
          <mxGeometry x="280" y="280" width="170" height="70" as="geometry" />
        </mxCell>
        <mxCell id="TRynRU9m-mXqjnWPsGmU-8" value="" style="endArrow=none;html=1;rounded=0;exitX=0.5;exitY=0.5;exitDx=0;exitDy=0;exitPerimeter=0;entryX=0.004;entryY=0.426;entryDx=0;entryDy=0;entryPerimeter=0;" parent="1" source="TRynRU9m-mXqjnWPsGmU-1" target="TRynRU9m-mXqjnWPsGmU-3" edge="1">
          <mxGeometry width="50" height="50" relative="1" as="geometry">
            <mxPoint x="400" y="300" as="sourcePoint" />
            <mxPoint x="270" y="120" as="targetPoint" />
            <Array as="points">
              <mxPoint x="220" y="120" />
            </Array>
          </mxGeometry>
        </mxCell>
        <mxCell id="TRynRU9m-mXqjnWPsGmU-9" value="" style="endArrow=none;html=1;rounded=0;exitX=0.5;exitY=0.5;exitDx=0;exitDy=0;exitPerimeter=0;entryX=0;entryY=0.5;entryDx=0;entryDy=0;" parent="1" source="TRynRU9m-mXqjnWPsGmU-1" target="TRynRU9m-mXqjnWPsGmU-4" edge="1">
          <mxGeometry width="50" height="50" relative="1" as="geometry">
            <mxPoint x="400" y="300" as="sourcePoint" />
            <mxPoint x="450" y="250" as="targetPoint" />
            <Array as="points" />
          </mxGeometry>
        </mxCell>
        <mxCell id="TRynRU9m-mXqjnWPsGmU-10" value="" style="endArrow=none;html=1;rounded=0;exitX=0.5;exitY=0.5;exitDx=0;exitDy=0;exitPerimeter=0;entryX=0.011;entryY=0.414;entryDx=0;entryDy=0;entryPerimeter=0;" parent="1" source="TRynRU9m-mXqjnWPsGmU-1" target="TRynRU9m-mXqjnWPsGmU-5" edge="1">
          <mxGeometry width="50" height="50" relative="1" as="geometry">
            <mxPoint x="120" y="290" as="sourcePoint" />
            <mxPoint x="170" y="240" as="targetPoint" />
            <Array as="points">
              <mxPoint x="180" y="310" />
            </Array>
          </mxGeometry>
        </mxCell>
      </root>
    </mxGraphModel>
  </diagram>
</mxfile>
